<?xml version="1.0" encoding="UTF-8"?>
<svg version="1.1" xmlns="http://www.w3.org/2000/svg" width="1305" height="356">
<path d="M0 0 C430.65 0 861.3 0 1305 0 C1305 117.48 1305 234.96 1305 356 C874.35 356 443.7 356 0 356 C0 238.52 0 121.04 0 0 Z " fill="#FEFEFE" transform="translate(0,0)"/>
<path d="M0 0 C3.68112428 0.00317549 7.36145382 -0.02045519 11.04248047 -0.0456543 C45.68314776 -0.13911169 78.26846102 7.73038652 103.77294922 32.44848633 C112.62191867 41.57087899 118.3523769 51.86046464 123.55419922 63.31567383 C123.97701172 64.24637695 124.39982422 65.17708008 124.83544922 66.13598633 C129.84214388 77.93206238 131.65946181 90.11380745 131.79248047 102.83911133 C131.802229 103.61891861 131.81197754 104.39872589 131.82202148 105.2021637 C132.13501691 136.65174833 132.13501691 136.65174833 127.55419922 151.31567383 C127.20357422 152.58797852 126.85294922 153.8602832 126.49169922 155.17114258 C119.45429812 178.75132335 104.43445446 200.09674532 83.55419922 213.31567383 C82.68666016 213.88930664 81.81912109 214.46293945 80.92529297 215.05395508 C60.01067312 228.17286127 33.47355394 233.63556388 9.07373047 233.61645508 C7.8220256 233.6207402 6.57032074 233.62502533 5.28068542 233.62944031 C1.97484081 233.6365939 -1.33081808 233.63360883 -4.63665771 233.62786865 C-7.91360801 233.62836952 -11.19041218 233.65589257 -14.46728516 233.67700195 C-17.05777903 233.67927888 -19.64827486 233.67997662 -22.23876953 233.67895508 C-23.37622116 233.68816483 -24.51367279 233.69737457 -25.68559265 233.7068634 C-38.53570495 233.63770313 -50.42270814 231.81833836 -63.44580078 230.31567383 C-63.44580078 156.39567383 -63.44580078 82.47567383 -63.44580078 6.31567383 C-42.80484784 0.4182587 -21.33185031 -0.0384127 0 0 Z " fill="#ED1D26" transform="translate(86.44580078125,48.684326171875)"/>
<path d="M0 0 C0.98871094 0.33902344 1.97742188 0.67804688 2.99609375 1.02734375 C13.65926894 5.06169156 23.06942306 11.08102336 29 21 C29.78503906 22.29164062 29.78503906 22.29164062 30.5859375 23.609375 C40.38371993 41.29317744 40.63211994 65.40565062 35.96875 84.75 C31.56262601 99.53183534 23.67163663 112.54006266 10.21875 120.68359375 C-8.08220328 130.33975463 -23.81794455 130 -45 130 C-45 86.11 -45 42.22 -45 -3 C-30.19121617 -4.34625308 -14.26474167 -5.021021 0 0 Z " fill="#FEFEFE" transform="translate(124,102)"/>
<path d="M0 0 C1.67542976 0.28604898 3.34385343 0.61781233 5 1 C5 2.98 5 4.96 5 7 C3.34385343 7.38218767 1.67542976 7.71395102 0 8 C-1 7 -1 7 -1.125 4 C-1 1 -1 1 0 0 Z " fill="#EB2027" transform="translate(1245,246)"/>
<path d="M0 0 C-2 2 -2 2 -4.05859375 2.265625 C-4.84363281 2.26046875 -5.62867188 2.2553125 -6.4375 2.25 C-7.61119141 2.25773437 -7.61119141 2.25773437 -8.80859375 2.265625 C-11 2 -11 2 -14 0 C-9.20699867 -1.39151652 -4.84864218 -0.68662689 0 0 Z " fill="#EE393F" transform="translate(51,52)"/>
<path d="M0 0 C-0.66 0.66 -1.32 1.32 -2 2 C-2.99 2 -3.98 2 -5 2 C-5 2.99 -5 3.98 -5 5 C-7.64 4.67 -10.28 4.34 -13 4 C-10.56272708 2.37515139 -8.62713877 1.34310925 -5.9375 0.3125 C-5.24527344 0.04050781 -4.55304688 -0.23148438 -3.83984375 -0.51171875 C-2 -1 -2 -1 0 0 Z " fill="#EE2C36" transform="translate(132,225)"/>
<path d="M0 0 C0 1.98 0 3.96 0 6 C-1.65 5.67 -3.3 5.34 -5 5 C-5.33 4.01 -5.66 3.02 -6 2 C-3 0 -3 0 0 0 Z " fill="#ED3A36" transform="translate(1163,245)"/>
<path d="M0 0 C2.125 0.9375 2.125 0.9375 4 2 C4 2.33 4 2.66 4 3 C6.97 3.495 6.97 3.495 10 4 C10 4.33 10 4.66 10 5 C5.83861737 5.08159574 2.0527516 4.98248524 -2 4 C-2 3.01 -2 2.02 -2 1 C-1.34 0.67 -0.68 0.34 0 0 Z " fill="#EE333A" transform="translate(26,275)"/>
<path d="M0 0 C0.33 0 0.66 0 1 0 C0.88557539 1.60495567 0.75805306 3.20898119 0.625 4.8125 C0.55539063 5.70582031 0.48578125 6.59914062 0.4140625 7.51953125 C0 10 0 10 -2 13 C-1.979375 12.05125 -1.95875 11.1025 -1.9375 10.125 C-1.77448174 7.09333717 -1.77448174 7.09333717 -3 5 C-1.625 2.375 -1.625 2.375 0 0 Z " fill="#F02A34" transform="translate(215,187)"/>
<path d="M0 0 C1.32 0 2.64 0 4 0 C4 1.32 4 2.64 4 4 C2.68 3.67 1.36 3.34 0 3 C0.33 3.99 0.66 4.98 1 6 C0.01 6.495 0.01 6.495 -1 7 C-1.04254356 5.00045254 -1.04080783 2.99958364 -1 1 C-0.67 0.67 -0.34 0.34 0 0 Z " fill="#EE2A2D" transform="translate(1245,246)"/>
<path d="M0 0 C1.98 0.495 1.98 0.495 4 1 C3.67 2.32 3.34 3.64 3 5 C2.34 5 1.68 5 1 5 C0.34 5.99 -0.32 6.98 -1 8 C-0.67 5.36 -0.34 2.72 0 0 Z " fill="#EE363D" transform="translate(161,175)"/>
<path d="M0 0 C1.98 0 3.96 0 6 0 C5.67 0.99 5.34 1.98 5 3 C3.35 3.33 1.7 3.66 0 4 C0 2.68 0 1.36 0 0 Z " fill="#EC2426" transform="translate(1041,79)"/>
<path d="M0 0 C0.66 0.99 1.32 1.98 2 3 C1.01 4.98 0.02 6.96 -1 9 C-1.66 8.67 -2.32 8.34 -3 8 C-2.690625 7.236875 -2.38125 6.47375 -2.0625 5.6875 C-1.32106407 3.81210323 -0.63771783 1.91315348 0 0 Z " fill="#ED2C36" transform="translate(155,197)"/>
<path d="M0 0 C3 3.75 3 3.75 3 6 C2.34 6 1.68 6 1 6 C0.67 6.99 0.34 7.98 0 9 C-1.15941038 5.52176885 -0.70820884 3.54104422 0 0 Z " fill="#EE2632" transform="translate(204,101)"/>
</svg>
