<?xml version="1.0" encoding="UTF-8"?>
<svg version="1.1" xmlns="http://www.w3.org/2000/svg" width="192" height="60">
<path d="M0 0 C4.65916542 4.55081273 7.35687622 9.43096737 7.625 16 C7.25336848 23.20965141 4.03883564 28.35514838 -0.8125 33.4375 C-6.43702414 37.51528 -13.00149692 38.33990419 -19.8125 37.4375 C-22.15634253 36.46238635 -24.49083745 35.46430448 -26.8125 34.4375 C-26.8371501 29.32886104 -26.85533607 24.22025641 -26.86743164 19.11157227 C-26.87247204 17.37230832 -26.8793043 15.63304864 -26.88793945 13.89379883 C-26.90001792 11.39924063 -26.90573108 8.90473827 -26.91015625 6.41015625 C-26.91531754 5.62786148 -26.92047882 4.84556671 -26.92579651 4.03956604 C-26.92599226 2.17182886 -26.87449694 0.30420796 -26.8125 -1.5625 C-21.76944393 -6.60555607 -5.34092118 -4.15530443 0 0 Z M-16.8125 6.4375 C-16.8125 13.0375 -16.8125 19.6375 -16.8125 26.4375 C-9.87093034 25.74412478 -9.87093034 25.74412478 -5.8125 21.4375 C-4.26225536 18.33701072 -4.52257985 15.85855782 -4.8125 12.4375 C-6.60812405 9.68420979 -7.86504922 7.91122539 -10.8125 6.4375 C-12.7925 6.4375 -14.7725 6.4375 -16.8125 6.4375 Z " fill="#E51F27" transform="translate(30.8125,11.5625)"/>
<path d="M0 0 C4.65916542 4.55081273 7.35687622 9.43096737 7.625 16 C7.25336848 23.20965141 4.03883564 28.35514838 -0.8125 33.4375 C-6.43702414 37.51528 -13.00149692 38.33990419 -19.8125 37.4375 C-22.15634253 36.46238635 -24.49083745 35.46430448 -26.8125 34.4375 C-26.8371501 29.32886104 -26.85533607 24.22025641 -26.86743164 19.11157227 C-26.87247204 17.37230832 -26.8793043 15.63304864 -26.88793945 13.89379883 C-26.90001792 11.39924063 -26.90573108 8.90473827 -26.91015625 6.41015625 C-26.91531754 5.62786148 -26.92047882 4.84556671 -26.92579651 4.03956604 C-26.92599226 2.17182886 -26.87449694 0.30420796 -26.8125 -1.5625 C-21.76944393 -6.60555607 -5.34092118 -4.15530443 0 0 Z M-24.8125 -0.5625 C-25.9812481 2.9437443 -25.93764267 6.0852866 -25.91015625 9.73046875 C-25.9087413 10.43649734 -25.90732635 11.14252594 -25.90586853 11.86994934 C-25.90027764 14.12167626 -25.88772688 16.37330321 -25.875 18.625 C-25.86998382 20.15299335 -25.86542112 21.68098827 -25.86132812 23.20898438 C-25.8503112 26.95186135 -25.83305287 30.69466373 -25.8125 34.4375 C-23.56776704 34.46289716 -21.32295112 34.48103454 -19.078125 34.49609375 C-17.20302246 34.51240845 -17.20302246 34.51240845 -15.29003906 34.52905273 C-10.59826812 34.40553307 -7.01864874 33.54057437 -2.8125 31.4375 C-3.3075 28.9625 -3.3075 28.9625 -3.8125 26.4375 C-5.7925 27.4275 -5.7925 27.4275 -7.8125 28.4375 C-12.7625 28.9325 -12.7625 28.9325 -17.8125 29.4375 C-17.8125 21.5175 -17.8125 13.5975 -17.8125 5.4375 C-7.97103659 6.53099593 -7.97103659 6.53099593 -3.8125 10.4375 C-3.1525 10.4375 -2.4925 10.4375 -1.8125 10.4375 C-1.8125 12.4175 -1.8125 14.3975 -1.8125 16.4375 C1.37240007 16.7148501 1.37240007 16.7148501 4.1875 14.4375 C4.4377157 11.35384129 4.4377157 11.35384129 4.1875 8.4375 C3.1975 8.4375 2.2075 8.4375 1.1875 8.4375 C1.1875 6.7875 1.1875 5.1375 1.1875 3.4375 C0.218125 3.14875 -0.75125 2.86 -1.75 2.5625 C-4.8125 1.4375 -4.8125 1.4375 -5.8125 -0.5625 C-12.0825 -0.5625 -18.3525 -0.5625 -24.8125 -0.5625 Z M-16.8125 6.4375 C-16.8125 13.0375 -16.8125 19.6375 -16.8125 26.4375 C-9.87093034 25.74412478 -9.87093034 25.74412478 -5.8125 21.4375 C-4.26225536 18.33701072 -4.52257985 15.85855782 -4.8125 12.4375 C-6.60812405 9.68420979 -7.86504922 7.91122539 -10.8125 6.4375 C-12.7925 6.4375 -14.7725 6.4375 -16.8125 6.4375 Z " fill="#DC242B" transform="translate(30.8125,11.5625)"/>
<path d="M0 0 C2.92875 -0.061875 5.8575 -0.12375 8.875 -0.1875 C9.79651855 -0.21481201 10.71803711 -0.24212402 11.66748047 -0.27026367 C12.39338379 -0.27775635 13.11928711 -0.28524902 13.8671875 -0.29296875 C14.98262939 -0.31653442 14.98262939 -0.31653442 16.12060547 -0.34057617 C17.05090576 -0.17199097 17.05090576 -0.17199097 18 0 C18.66 0.99 19.32 1.98 20 3 C22.56282742 3.72965366 22.56282742 3.72965366 25 4 C25 5.65 25 7.3 25 9 C25.99 9 26.98 9 28 9 C28.3125 11.8125 28.3125 11.8125 28 15 C25.5 16.875 25.5 16.875 23 18 C22 17 22 17 21.9375 13.9375 C21.958125 12.968125 21.97875 11.99875 22 11 C21.01 10.67 20.02 10.34 19 10 C18.67 9.01 18.34 8.02 18 7 C15.06174846 5.03683193 12.73387991 4.77253294 9.25 4.875 C8.05117187 4.90207031 8.05117187 4.90207031 6.828125 4.9296875 C5.92320313 4.96449219 5.92320313 4.96449219 5 5 C4.93941406 6.20398438 4.87882813 7.40796875 4.81640625 8.6484375 C4.73200268 10.22397077 4.64735459 11.79949096 4.5625 13.375 C4.50352539 14.56609375 4.50352539 14.56609375 4.44335938 15.78125 C4.11328125 21.7734375 4.11328125 21.7734375 3 24 C2.01 24 1.02 24 0 24 C0 16.08 0 8.16 0 0 Z " fill="#EC1C23" transform="translate(7,11)"/>
<path d="M0 0 C2.37327719 2.37327719 2.2957818 2.94974106 2.3125 6.1875 C2.1221873 13.60969546 -1.00800289 18.77028874 -6 24 C-11.82951555 28.22639878 -18.00088214 28.52800363 -25 28 C-28.5625 27 -28.5625 27 -31 26 C-31 25.67 -31 25.34 -31 25 C-30.40985107 24.94465088 -29.81970215 24.88930176 -29.21166992 24.83227539 C-26.53658792 24.57932313 -23.86205397 24.320973 -21.1875 24.0625 C-20.25873047 23.97548828 -19.32996094 23.88847656 -18.37304688 23.79882812 C-17.48037109 23.71181641 -16.58769531 23.62480469 -15.66796875 23.53515625 C-14.84578857 23.456604 -14.0236084 23.37805176 -13.17651367 23.29711914 C-10.82512578 23.04448955 -10.82512578 23.04448955 -8 22 C-8.495 19.525 -8.495 19.525 -9 17 C-5.535 16.505 -5.535 16.505 -2 16 C-0.89485234 12.68455701 -0.67892369 9.79589889 -0.4375 6.3125 C-0.35371094 5.13300781 -0.26992188 3.95351563 -0.18359375 2.73828125 C-0.09271484 1.38283203 -0.09271484 1.38283203 0 0 Z " fill="#EDB1B3" transform="translate(36,21)"/>
<path d="M0 0 C9 0 9 0 12 1.875 C15.31032912 5.39222469 15.34508226 8.0018241 15.27734375 12.67578125 C14.8411939 16.33083987 13.47285036 18.33192462 11 21 C6.95807375 22.89196548 4.56484094 23 0 23 C0 15.41 0 7.82 0 0 Z M1 1 C1 7.6 1 14.2 1 21 C7.94156966 20.30662478 7.94156966 20.30662478 12 16 C13.55024464 12.89951072 13.28992015 10.42105782 13 7 C11.20437595 4.24670979 9.94745078 2.47372539 7 1 C5.02 1 3.04 1 1 1 Z " fill="#FDE0E0" transform="translate(13,17)"/>
<path d="M0 0 C0.41507813 0.47953125 0.83015625 0.9590625 1.2578125 1.453125 C0.69610352 1.29013916 0.13439453 1.12715332 -0.44433594 0.95922852 C-2.87771931 0.42327402 -5.01840978 0.33951104 -7.5078125 0.35546875 C-8.71099121 0.35921509 -8.71099121 0.35921509 -9.93847656 0.36303711 C-10.94620117 0.37214111 -11.95392578 0.38124512 -12.9921875 0.390625 C-16.2096875 0.41125 -19.4271875 0.431875 -22.7421875 0.453125 C-23.0721875 12.003125 -23.4021875 23.553125 -23.7421875 35.453125 C-24.0721875 35.453125 -24.4021875 35.453125 -24.7421875 35.453125 C-24.7668376 30.34448604 -24.78502357 25.23588141 -24.79711914 20.12719727 C-24.80215954 18.38793332 -24.8089918 16.64867364 -24.81762695 14.90942383 C-24.82970542 12.41486563 -24.83541858 9.92036327 -24.83984375 7.42578125 C-24.84500504 6.64348648 -24.85016632 5.86119171 -24.85548401 5.05519104 C-24.85567976 3.18745386 -24.80418444 1.31983296 -24.7421875 -0.546875 C-20.79493116 -4.49413134 -4.07046554 -3.61413533 0 0 Z " fill="#EA7E82" transform="translate(28.7421875,10.546875)"/>
<path d="M0 0 C4.04790179 0.02582393 6.47952997 0.7180232 9.75 3.25 C9.42 3.91 9.09 4.57 8.75 5.25 C7.76 4.59 6.77 3.93 5.75 3.25 C2.78 2.92 -0.19 2.59 -3.25 2.25 C-3.25 9.84 -3.25 17.43 -3.25 25.25 C-3.91 25.25 -4.57 25.25 -5.25 25.25 C-5.27886984 21.27084841 -5.29675406 17.29172347 -5.3125 13.3125 C-5.32087891 12.17619141 -5.32925781 11.03988281 -5.33789062 9.86914062 C-5.34111328 8.78955078 -5.34433594 7.70996094 -5.34765625 6.59765625 C-5.35289307 5.59742432 -5.35812988 4.59719238 -5.36352539 3.56665039 C-5.17006754 -0.38113781 -3.54051741 0.07034141 0 0 Z " fill="#CF343D" transform="translate(16.25,14.75)"/>
<path d="M0 0 C13.2293578 -0.57798165 13.2293578 -0.57798165 18 3 C20.375 6.1875 20.375 6.1875 22 9 C21.67 9.66 21.34 10.32 21 11 C20.01 10.67 19.02 10.34 18 10 C18 8.35 18 6.7 18 5 C16.35 5 14.7 5 13 5 C12.34 3.68 11.68 2.36 11 1 C7.37 1 3.74 1 0 1 C0 0.67 0 0.34 0 0 Z " fill="#D92D35" transform="translate(14,10)"/>
<path d="M0 0 C0.99 0.33 1.98 0.66 3 1 C3.51211281 7.40141012 3.11888494 10.98010898 -1 16 C-2 13 -2 13 -1.0703125 11.109375 C-0.71710937 10.41328125 -0.36390625 9.7171875 0 9 C0.23979762 6.63777768 0.23979762 6.63777768 0.125 4.25 C0.10695313 3.45078125 0.08890625 2.6515625 0.0703125 1.828125 C0.04710937 1.22484375 0.02390625 0.6215625 0 0 Z " fill="#FCD4D7" transform="translate(25,22)"/>
<path d="M0 0 C0.33 1.32 0.66 2.64 1 4 C-2.14591933 6.80045623 -4.067064 7.35261589 -8.25 7.1875 C-9.14203125 7.16042969 -10.0340625 7.13335937 -10.953125 7.10546875 C-11.96632813 7.05326172 -11.96632813 7.05326172 -13 7 C-13 6.67 -13 6.34 -13 6 C-12.22914062 5.81824219 -11.45828125 5.63648438 -10.6640625 5.44921875 C-9.15972656 5.07216797 -9.15972656 5.07216797 -7.625 4.6875 C-6.62726562 4.44386719 -5.62953125 4.20023438 -4.6015625 3.94921875 C-1.6915014 3.17806142 -1.6915014 3.17806142 0 0 Z " fill="#D82E37" transform="translate(26,34)"/>
<path d="M0 0 C0.12375 0.639375 0.2475 1.27875 0.375 1.9375 C0.684375 2.9584375 0.684375 2.9584375 1 4 C1.66 4.33 2.32 4.66 3 5 C0.64046906 7.35953094 -0.77895617 7.49141413 -4 8 C-4 6.68 -4 5.36 -4 4 C-3.34 4 -2.68 4 -2 4 C-1.34 2.68 -0.68 1.36 0 0 Z " fill="#EA1C22" transform="translate(31,30)"/>
<path d="M0 0 C2.31 0 4.62 0 7 0 C6.34 1.65 5.68 3.3 5 5 C3.68 5 2.36 5 1 5 C0.67 3.35 0.34 1.7 0 0 Z " fill="#E3424A" transform="translate(27,38)"/>
<path d="M0 0 C2 1 2 1 3.1875 3.375 C4 6 4 6 3 9 C2.62875 8.1028125 2.62875 8.1028125 2.25 7.1875 C0.83629988 4.71352479 -0.65055383 3.56629745 -3 2 C-2.01 2 -1.02 2 0 2 C0 1.34 0 0.68 0 0 Z " fill="#E61F2E" transform="translate(24,13)"/>
<path d="M0 0 C2.79872437 2.52788007 4.45773019 4.20411134 5 8 C3.68 7.67 2.36 7.34 1 7 C0.67 4.69 0.34 2.38 0 0 Z " fill="#DE545B" transform="translate(31,13)"/>
<path d="M0 0 C1 4 1 4 1 4 Z " fill="#FFFFFF" transform="translate(2,41)"/>
</svg>
